<?xml  version="1.0" encoding="UTF-8"?>
<!DOCTYPE svg PUBLIC "-//W3C//DTD SVG 1.0//EN" "http://www.w3.org/TR/2001/REC-SVG-20010904/DTD/svg10.dtd" >
<svg xmlns="http://www.w3.org/2000/svg" >
<metadata>
<version>1.0</version>
<id><![CDATA[Proxima N W15 Cd Light]]></id>
<vendor>Monotype Imaging Inc.</vendor>
<credits>
<name>Fonts.com WebFonts</name>
<URL>http://webfonts.fonts.com</URL>
<role>Home of the Web fonts</role>
</credits>
<license>
<URL>http://webfonts.fonts.com/Legal</URL>
</license>
<copyright><![CDATA[Copyright (c) Mark Simonson, 2005. All rights reserved.]]></copyright>
<trademark><![CDATA[Proxima Nova is a trademark of Mark Simonson.]]></trademark>
<licensee>
<name></name>
</licensee>
</metadata>
<defs >
<font horiz-adv-x="421" id="d1116fb4-2dec-4fad-b64c-4ed24e4d3db0">
<font-face font-family="" panose-1="2 0 5 6 3 0 0 2 0 4" ascent="741" descent="-259" units-per-em="1000" alphabetic="0">
</font-face>
<missing-glyph horiz-adv-x="0" />

<glyph unicode="&#xA;" />
<glyph unicode="&#xD;" horiz-adv-x="0" />
<glyph unicode=" " horiz-adv-x="218" />
<glyph unicode="!" horiz-adv-x="218" d="M89 173L76 667H142L129 173H89ZM109 -9Q91 -9 79 3T66 34Q66 51 78 63T109 76Q127 76 139 64T152 34Q152 16 140 4T109 -9Z"  />
<glyph unicode="&quot;" horiz-adv-x="315" d="M79 429Q72 485 68 531Q66 550 65 569T62 603T59 629T58 642Q58 656 68 666T93 677Q108 677 118 667T128 642Q128 639 127 629T125 604T122 569T118 531Q114 485 108 429H79ZM207 429Q201 485 197 531Q195 550 194 569T191 603T188 629T187 642Q187 656 197 666T222 677Q236 677 246 667T257 642Q257 639 256 629T254 604T250 569T246 531Q242 485 236 429H207Z"  />
<glyph unicode="#" horiz-adv-x="494" d="M200 0L254 186H158L105 0H59L112 186H21L31 226H124L184 440H91L101 480H196L248 667H294L242 480H337L389 667H435L382 480H473L464 440H371L310 226H405L394 186H298L246 0H200ZM325 440H230L169 226H264L325 440Z"  />
<glyph unicode="$" horiz-adv-x="454" d="M213 -12Q155 -10 111 12T36 71L70 114Q93 84 129 63T213 39V323Q184 338 156 354T105 391T69 441T55 511Q55 546 67 575T100 625T151 660T213 677V768H258V677Q303 673 338 656T401 609L370 567Q325 618 258 626V367Q287 352 315 335T365 294T401 240T415 166Q415 135 406 106T378 52T329 12T258 -10V-100H213V-12ZM358 163Q358 189 350 209T329 245T297 275T258 299V42Q310 52 334 86T358 163ZM112 513Q112 490 120 472T141 440T173 413T213 390V625Q169 619 141 590T112 513Z"  />
<glyph unicode="%" horiz-adv-x="641" d="M170 350Q139 350 114 362T71 396T43 447T33 512Q33 547 43 577T71 630T114 664T170 677Q201 677 226 665T269 630T297 578T307 512Q307 477 297 448T269 396T226 362T170 350ZM128 0L476 667H518L168 0H128ZM471 -12Q441 -12 416 0T373 34T345 86T335 151Q335 186 345 216T373 268T416 302T471 315Q502 315 527 303T570 268T598 216T608 151Q608 116 598 86T570 35T527 1T471 -12ZM170 387Q191 387 208 397T237 424T255 463T262 512Q262 538 256 561T237 601T208 629T170 639Q149 639 132 629T103 602T85 561T78 512Q78 486 84 464T103 424T132 397T170 387ZM471 26Q492 26 509 36T539 63T557 102T564 151Q564 177 558 200T539 240T510 267T471 277Q450 277 433 267T404 240T386 200T379 151Q379 125 385 103T404 63T433 36T471 26Z"  />
<glyph unicode="&amp;" horiz-adv-x="509" d="M418 0Q404 17 389 36T357 76Q328 37 290 13T201 -12Q168 -12 139 -1T89 33T55 89T42 164Q42 203 52 233T78 288T116 332T161 369Q141 410 129 448T116 520Q116 555 125 584T151 633T191 665T243 677Q292 677 324 644T356 552Q356 516 345 488T314 438T271 396T222 359Q239 330 256 303T287 256Q305 228 321 205T353 161Q374 204 387 247T409 319L455 300Q442 255 425 209T385 120L486 0H418ZM206 33Q243 33 273 56T326 114Q303 145 283 173T249 221Q232 247 215 273T182 328Q147 299 122 261T97 166Q97 133 106 108T130 67T164 42T206 33ZM169 520Q169 492 178 462T202 399Q223 414 242 429T275 463T298 502T307 551Q307 593 288 613T243 634Q210 634 190 605T169 520Z"  />
<glyph unicode="&apos;" horiz-adv-x="187" d="M79 429Q72 485 68 531Q66 550 65 569T62 603T59 629T58 642Q58 656 68 666T93 677Q108 677 118 667T128 642Q128 639 127 629T125 604T122 569T118 531Q114 485 108 429H79Z"  />
<glyph unicode="(" horiz-adv-x="208" d="M158 -199Q103 -99 75 11T46 243Q46 364 74 474T158 685L190 667Q170 619 154 571T127 472T110 365T103 243Q103 178 109 122T127 14T154 -84T190 -180L158 -199Z"  />
<glyph unicode=")" horiz-adv-x="208" d="M17 -180Q37 -132 53 -85T80 14T98 121T104 243Q104 308 98 364T81 472T53 571T17 667L49 685Q104 585 132 475T161 243Q161 122 133 12T49 -199L17 -180Z"  />
<glyph unicode="*" horiz-adv-x="315" d="M139 400L145 517L46 453L28 485L132 538L28 591L46 624L145 560L139 677H176L170 560L269 624L287 591L183 538L287 485L269 453L170 517L176 400H139Z"  />
<glyph unicode="+" horiz-adv-x="436" d="M240 317V129H196V317H29V357H196V539H240V357H407V317H240Z"  />
<glyph unicode="&#x2c;" horiz-adv-x="218" d="M157 13Q157 -29 136 -65T86 -122L57 -98Q81 -81 97 -55T116 -6Q115 -6 112 -6T106 -7Q88 -7 77 5T66 34Q66 51 78 63T108 76Q128 76 142 60T157 13Z"  />
<glyph unicode="-" horiz-adv-x="266" d="M30 219V265H236V219H30Z"  />
<glyph unicode="." horiz-adv-x="218" d="M109 -9Q92 -9 79 3T66 34Q66 51 79 63T109 76Q127 76 139 64T152 34Q152 16 140 4T109 -9Z"  />
<glyph unicode="/" horiz-adv-x="235" d="M0 -20L192 687H235L43 -20H0Z"  />
<glyph unicode="0" horiz-adv-x="502" d="M251 -12Q194 -12 156 20T95 102T63 214T53 333Q53 391 62 452T95 563T156 645T251 677Q308 677 346 645T407 564T439 453T449 333Q449 275 440 214T407 103T346 20T251 -12ZM251 39Q293 39 320 66T362 136T384 231T390 333Q390 383 384 435T363 529T320 599T251 626Q209 626 182 599T139 530T117 435T111 333Q111 283 117 231T138 137T181 67T251 39Z"  />
<glyph unicode="1" horiz-adv-x="288" d="M157 0V592L53 479L18 515L162 667H212V0H157Z"  />
<glyph unicode="2" horiz-adv-x="476" d="M56 0V46Q134 142 189 210T280 331T333 423T350 504Q350 534 341 556T315 594T277 618T234 626Q186 626 151 604T94 539L53 571Q83 622 127 649T234 677Q268 677 299 666T355 633T393 579T407 504Q407 460 390 416T339 320T253 202T133 50H409V0H56Z"  />
<glyph unicode="3" horiz-adv-x="456" d="M217 -12Q150 -12 103 21T32 100L73 131Q95 91 130 65T216 39Q281 39 313 77T346 182Q346 221 335 247T304 288T260 311T209 318Q195 318 181 318T160 317V370Q168 369 181 369T209 369Q235 369 258 376T298 399T326 439T337 495Q337 561 303 593T215 626Q168 626 137 603T80 542L41 573Q68 620 113 648T218 677Q255 677 287 666T343 633T380 578T394 501Q394 469 384 443T358 397T320 364T278 345Q299 342 321 329T361 295T390 245T402 179Q402 138 390 103T355 43T298 3T217 -12Z"  />
<glyph unicode="4" horiz-adv-x="439" d="M284 0V183H24V234L268 667H340V233H415V183H340V0H284ZM284 602L77 233H284V602Z"  />
<glyph unicode="5" horiz-adv-x="476" d="M242 -12Q170 -12 128 18T58 99L99 131Q122 86 155 63T241 39Q270 39 293 52T333 87T359 139T368 201Q368 282 334 323T245 365Q209 365 179 351T120 300L77 318V667H391V617H132V356Q152 381 184 398T256 415Q291 415 322 402T376 361T412 294T425 202Q425 156 411 117T373 50T315 5T242 -12Z"  />
<glyph unicode="6" horiz-adv-x="478" d="M249 -12Q192 -12 155 17T95 95T63 206T53 333Q53 397 63 458T98 568T162 647T261 677Q314 677 350 653T410 589L375 552Q356 586 331 606T261 626Q217 626 188 599T142 529T118 434T110 331V308Q119 326 133 344T166 378T209 402T260 412Q296 412 327 399T381 360T417 294T430 201Q430 161 419 123T385 54T328 6T249 -12ZM247 39Q280 39 304 53T343 90T365 141T372 199Q372 243 363 274T337 324T298 353T249 362Q226 362 206 353T168 327T136 290T112 247Q114 217 121 181T143 113T183 60T247 39Z"  />
<glyph unicode="7" horiz-adv-x="403" d="M100 0L313 617H28V667H375V629L160 0H100Z"  />
<glyph unicode="8" horiz-adv-x="470" d="M235 -12Q194 -12 160 0T102 35T65 90T51 162Q51 196 63 225T94 277T138 318T186 344Q164 352 142 366T101 402T72 449T60 509Q60 551 74 582T113 635T169 666T235 677Q269 677 300 667T356 635T396 583T411 509Q411 476 400 450T370 402T330 367T285 344Q309 335 333 318T376 278T407 225T419 162Q419 122 406 90T368 36T310 1T235 -12ZM235 367Q245 369 265 377T304 402T339 444T354 504Q354 561 321 593T235 626Q182 626 150 594T117 504Q117 469 132 444T166 403T205 378T235 367ZM235 39Q261 39 284 47T324 72T352 112T362 167Q362 204 346 232T309 279T267 309T235 321Q224 319 203 309T161 280T124 232T108 166Q108 136 118 112T145 72T186 48T235 39Z"  />
<glyph unicode="9" horiz-adv-x="478" d="M217 -11Q164 -11 128 13T68 77L103 114Q122 80 147 60T217 40Q261 40 290 67T336 136T361 231T368 334Q368 342 368 346T367 359Q359 341 345 322T311 288T269 264T218 254Q182 254 151 267T97 306T61 373T48 466Q48 505 59 543T92 611T149 659T228 678Q285 678 323 649T383 571T415 460T425 333Q425 269 415 208T380 98T315 19T217 -11ZM228 304Q251 304 272 313T310 339T341 375T365 419Q363 449 357 485T335 553T294 606T230 627Q197 627 174 613T135 576T112 524T105 467Q105 423 114 392T140 342T179 313T228 304Z"  />
<glyph unicode=":" horiz-adv-x="218" d="M109 404Q92 404 79 417T66 447Q66 464 79 477T109 490Q127 490 139 477T152 447Q152 430 140 417T109 404ZM109 -9Q92 -9 79 3T66 34Q66 51 79 63T109 76Q127 76 139 64T152 34Q152 16 140 4T109 -9Z"  />
<glyph unicode=";" horiz-adv-x="218" d="M109 404Q92 404 79 417T66 447Q66 464 79 477T109 490Q127 490 139 477T152 447Q152 430 140 417T109 404ZM157 14Q157 -28 136 -64T86 -121L57 -97Q81 -80 97 -54T116 -5Q115 -5 112 -5T106 -6Q88 -6 77 6T66 35Q66 52 78 64T108 77Q128 77 142 61T157 14Z"  />
<glyph unicode="&lt;" horiz-adv-x="436" d="M29 317V353L407 543V494L81 334L407 175V127L29 317Z"  />
<glyph unicode="=" horiz-adv-x="436" d="M29 412V452H407V412H29ZM29 216V256H407V216H29Z"  />
<glyph unicode="&gt;" horiz-adv-x="436" d="M29 127V175L355 334L29 494V543L407 353V317L29 127Z"  />
<glyph unicode="?" horiz-adv-x="386" d="M178 176Q143 211 143 256Q143 288 154 312T183 355T220 392T257 428T285 470T297 524Q297 544 290 562T269 595T235 618T188 627Q144 627 116 611T64 565L33 602Q61 638 101 658T193 678Q230 678 259 667T310 635T342 587T354 530Q354 494 342 467T313 418T274 378T236 341T206 302T194 254Q194 240 201 225T219 200L178 176ZM190 -9Q173 -9 160 3T147 34Q147 51 160 63T190 76Q208 76 220 64T233 34Q233 16 221 4T190 -9Z"  />
<glyph unicode="@" horiz-adv-x="684" d="M306 -70Q247 -70 197 -48T111 13T55 108T35 230Q35 311 64 385T143 515T258 605T394 639Q451 639 498 618T578 560T629 470T648 355Q648 293 635 243T601 158T552 104T497 85Q460 85 440 108T418 163V169Q395 136 361 111T283 85Q232 85 197 119T162 226Q162 278 178 327T223 414T290 476T371 500Q411 500 436 477T472 421L484 482H532L472 197Q471 193 470 187T469 176Q469 149 480 137T509 125Q522 125 540 138T576 179T604 250T616 355Q616 413 600 459T554 539T483 589T392 607Q326 607 268 575T165 491T94 370T68 231Q68 171 86 122T136 36T212 -19T310 -39Q358 -39 396 -24T469 18L486 -7Q445 -37 400 -53T306 -70ZM294 125Q317 125 336 133T372 155T402 186T427 219L462 379Q459 392 452 406T435 432T410 451T376 459Q340 459 310 438T258 383T224 308T212 229Q212 182 232 154T294 125Z"  />
<glyph unicode="A" horiz-adv-x="492" d="M420 0L372 165H121L73 0H12L213 667H279L480 0H420ZM246 602L133 215H359L246 602Z"  />
<glyph unicode="B" horiz-adv-x="498" d="M75 0V667H272Q347 667 390 622T433 497Q433 434 404 395T333 344Q357 340 377 325T412 288T435 237T444 180Q444 96 401 48T277 0H75ZM265 367Q294 367 314 376T348 403T368 442T374 491Q374 517 368 540T349 580T315 607T265 617H131V367H265ZM269 50Q328 50 356 86T385 184Q385 210 378 234T357 276T321 306T269 317H131V50H269Z"  />
<glyph unicode="C" horiz-adv-x="523" d="M302 -12Q245 -12 199 14T120 86T71 195T53 333Q53 408 70 471T120 580T198 652T302 678Q336 678 363 669T413 644T454 607T486 561L439 537Q416 579 382 603T302 627Q258 627 223 605T163 544T125 451T111 333Q111 270 124 216T163 123T223 61T302 39Q350 39 384 67T440 139L488 115Q474 88 456 65T416 25T365 -2T302 -12Z"  />
<glyph unicode="D" horiz-adv-x="549" d="M75 0V667H237Q300 667 348 641T429 570T479 464T496 333Q496 262 479 201T430 96T349 26T237 0H75ZM237 50Q287 50 324 72T387 132T424 221T437 333Q437 393 425 444T387 534T325 595T237 617H131V50H237Z"  />
<glyph unicode="E" horiz-adv-x="452" d="M75 0V667H401V617H131V367H394V317H131V50H401V0H75Z"  />
<glyph unicode="F" horiz-adv-x="441" d="M75 0V667H401V617H131V367H394V317H131V0H75Z"  />
<glyph unicode="G" horiz-adv-x="552" d="M302 -13Q246 -13 200 12T122 83T71 192T53 333Q53 410 71 473T121 582T200 653T302 678Q370 678 415 646T490 563L445 539Q422 579 386 603T302 627Q258 627 223 605T163 544T125 451T111 333Q111 269 124 215T163 122T223 60T302 38Q349 38 383 57T438 102V280H264V331H492V81Q458 36 410 12T302 -13Z"  />
<glyph unicode="H" horiz-adv-x="559" d="M429 0V318H131V0H75V667H131V368H429V667H484V0H429Z"  />
<glyph unicode="I" horiz-adv-x="206" d="M75 0V667H131V0H75Z"  />
<glyph unicode="J" horiz-adv-x="390" d="M148 -12Q106 -12 72 3T10 54L41 96Q61 70 86 55T145 39Q199 39 229 71T259 163V667H315V162Q315 117 303 85T268 31T215 -1T148 -12Z"  />
<glyph unicode="K" horiz-adv-x="490" d="M403 0L190 309L131 225V0H75V667H131V303L384 667H451L224 349L471 0H403Z"  />
<glyph unicode="L" horiz-adv-x="412" d="M75 0V667H131V50H380V0H75Z"  />
<glyph unicode="M" horiz-adv-x="661" d="M531 0V571L342 0H319L131 571V0H75V667H156L331 141L506 667H586V0H531Z"  />
<glyph unicode="N" horiz-adv-x="557" d="M428 0L131 546V0H75V667H131L426 129V667H482V0H428Z"  />
<glyph unicode="O" horiz-adv-x="590" d="M295 -12Q236 -12 191 15T115 89T69 198T53 333Q53 405 68 467T115 577T191 651T295 678Q353 678 398 651T474 577T521 468T537 333Q537 261 521 199T475 89T399 15T295 -12ZM295 39Q339 39 373 62T430 125T466 218T478 333Q478 394 466 448T431 541T373 604T295 627Q250 627 216 604T159 542T123 448T111 333Q111 272 123 219T158 125T216 62T295 39Z"  />
<glyph unicode="P" horiz-adv-x="468" d="M75 0V667H259Q302 667 335 652T390 609T423 547T434 472Q434 433 423 398T390 336T335 294T259 278H131V0H75ZM255 328Q312 328 343 368T375 472Q375 536 344 576T255 617H131V328H255Z"  />
<glyph unicode="Q" horiz-adv-x="590" d="M295 -12Q236 -12 191 15T115 89T69 198T53 333Q53 405 68 467T115 577T191 651T295 678Q353 678 398 651T474 577T521 468T537 333Q537 248 515 178T451 59L493 -4L452 -31L414 25Q363 -12 295 -12ZM295 39Q346 39 385 70L300 199L342 226L419 108Q448 149 463 207T478 333Q478 394 466 448T431 541T373 604T295 627Q250 627 216 604T159 542T123 448T111 333Q111 272 123 219T158 125T216 62T295 39Z"  />
<glyph unicode="R" horiz-adv-x="491" d="M377 0L237 278H131V0H75V667H260Q297 667 329 654T384 616T421 555T434 473Q434 428 422 394T391 337T346 301T294 285L441 0H377ZM255 328Q312 328 344 368T376 472Q376 536 344 576T255 617H131V328H255Z"  />
<glyph unicode="S" horiz-adv-x="459" d="M222 -12Q161 -12 114 10T35 71L69 114Q93 82 132 61T222 39Q257 39 282 49T324 77T349 116T357 163Q357 208 335 237T279 287T206 326T133 367T77 424T54 511Q54 549 68 580T106 632T163 666T233 678Q287 678 328 660T400 609L369 567Q342 599 308 613T232 627Q207 627 185 619T147 596T121 560T111 513Q111 474 133 449T189 403T262 365T335 321T391 259T414 166Q414 132 403 100T369 43T309 3T222 -12Z"  />
<glyph unicode="T" horiz-adv-x="435" d="M189 0V617H27V667H408V617H245V0H189Z"  />
<glyph unicode="U" horiz-adv-x="551" d="M276 -12Q179 -12 127 44T75 210V667H131V209Q131 123 169 81T276 38Q345 38 382 80T420 209V667H476V210Q476 101 424 45T276 -12Z"  />
<glyph unicode="V" horiz-adv-x="492" d="M213 0L12 667H73L246 69L420 667H480L279 0H213Z"  />
<glyph unicode="W" horiz-adv-x="693" d="M465 0L346 562L228 0H167L20 667H80L199 89L321 667H372L494 89L613 667H673L526 0H465Z"  />
<glyph unicode="X" horiz-adv-x="491" d="M414 0L246 293L78 0H12L213 340L23 667H90L246 389L402 667H468L279 341L479 0H414Z"  />
<glyph unicode="Y" horiz-adv-x="483" d="M214 0V286L8 667H72L241 342L412 667H475L269 286V0H214Z"  />
<glyph unicode="Z" horiz-adv-x="453" d="M42 0V49L338 617H42V667H403V619L106 50H410V0H42Z"  />
<glyph unicode="[" horiz-adv-x="200" d="M36 -190V678H183V636H79V-148H183V-190H36Z"  />
<glyph unicode="\" horiz-adv-x="235" d="M1 687H44L236 -20H193L1 687Z"  />
<glyph unicode="]" horiz-adv-x="200" d="M17 -190V-148H121V636H17V678H164V-190H17Z"  />
<glyph unicode="^" horiz-adv-x="377" d="M313 333L189 624L65 333H19L169 667H209L358 333H313Z"  />
<glyph unicode="_" horiz-adv-x="422" d="M-3 -82V-40H425V-82H-3Z"  />
<glyph unicode="`" horiz-adv-x="174" d="M135 556L0 700H58L174 556H135Z"  />
<glyph unicode="a" horiz-adv-x="440" d="M318 0V54Q294 19 261 4T191 -12Q161 -12 135 -1T89 31T58 82T46 149Q46 186 57 216T89 266T135 298T191 309Q228 309 261 294T318 245V339Q318 393 292 422T216 451Q181 451 152 437T93 389L67 425Q100 461 138 478T221 495Q290 495 329 458T369 343V0H318ZM205 27Q239 27 269 43T318 95V201Q299 236 269 252T205 269Q180 269 160 260T127 234T106 195T99 148Q99 123 106 101T126 63T160 37T205 27Z"  />
<glyph unicode="b" horiz-adv-x="469" d="M121 122Q128 104 141 88T169 60T203 41T241 33Q274 33 297 49T336 94T359 161T367 241Q367 283 360 321T337 387T298 433T241 450Q222 450 204 443T170 422T141 393T121 359V122ZM71 0V667H121V409Q144 451 178 473T250 495Q291 495 323 476T376 424T409 343T421 241Q421 185 410 139T377 59T323 7T250 -12Q211 -12 177 11T121 72V0H71Z"  />
<glyph unicode="c" horiz-adv-x="400" d="M239 -12Q194 -12 159 8T99 62T61 143T48 242Q48 295 61 341T98 421T158 475T239 495Q287 495 317 478T370 431L340 397Q319 426 295 438T242 450Q207 450 181 433T137 388T111 322T102 242Q102 200 110 163T136 96T180 50T242 33Q271 33 295 45T340 86L370 52Q347 22 317 5T239 -12Z"  />
<glyph unicode="d" horiz-adv-x="469" d="M348 0V72Q327 35 293 12T219 -12Q178 -12 146 6T93 58T60 138T48 241Q48 296 59 343T92 423T146 476T219 495Q257 495 291 473T348 409V667H398V0H348ZM228 33Q247 33 265 40T299 60T327 88T348 122V360Q340 377 328 393T300 422T266 442T228 450Q195 450 172 433T133 388T110 321T102 241Q102 199 109 161T132 95T171 50T228 33Z"  />
<glyph unicode="e" horiz-adv-x="463" d="M247 -12Q200 -12 163 7T101 60T62 140T48 242Q48 294 61 340T98 421T156 475T235 495Q282 495 316 475T373 420T407 339T418 241V225H102Q103 184 113 149T142 87T188 46T250 31Q284 31 315 47T369 96L400 67Q371 30 334 9T247 -12ZM367 265Q367 296 360 329T336 389T295 434T234 452Q199 452 174 434T133 389T110 328T101 265H367Z"  />
<glyph unicode="f" horiz-adv-x="239" d="M86 0V438H22V483H86V552Q86 610 115 643T197 677Q218 677 237 671T274 647L251 609Q230 633 202 633Q169 633 153 612T137 552V483H220V438H137V0H86Z"  />
<glyph unicode="g" horiz-adv-x="469" d="M222 -196Q174 -196 138 -184T67 -136L94 -95Q142 -152 220 -152Q247 -152 270 -144T310 -119T337 -76T347 -13V76Q327 39 293 15T219 -10Q178 -10 146 8T93 60T60 139T48 242Q48 297 59 343T92 424T146 476T219 495Q257 495 291 473T347 409V483H398V-11Q398 -62 385 -97T347 -154T291 -186T222 -196ZM228 35Q247 35 265 42T299 62T327 91T347 125V360Q340 377 328 393T300 422T266 442T228 450Q195 450 172 434T133 389T110 322T102 242Q102 200 109 162T132 96T171 52T228 35Z"  />
<glyph unicode="h" horiz-adv-x="450" d="M329 0V356Q329 409 307 429T245 450Q226 450 208 443T174 424T144 397T121 365V0H71V667H121V412Q132 428 147 443T181 469T219 488T261 495Q321 495 350 465T379 366V0H329Z"  />
<glyph unicode="i" horiz-adv-x="192" d="M96 559Q80 559 69 570T57 598Q57 615 68 626T96 637Q112 637 123 626T135 598Q135 582 124 571T96 559ZM71 0V483H121V0H71Z"  />
<glyph unicode="j" horiz-adv-x="192" d="M96 559Q80 559 69 570T57 598Q57 615 68 626T96 637Q112 637 123 626T135 598Q135 582 124 571T96 559ZM15 -196Q-11 -196 -29 -187T-63 -160L-38 -124Q-30 -135 -18 -143T12 -152Q38 -152 54 -135T71 -73V483H121V-73Q121 -139 94 -167T15 -196Z"  />
<glyph unicode="k" horiz-adv-x="424" d="M343 0L197 230L121 136V0H71V667H121V202L345 483H406L231 265L404 0H343Z"  />
<glyph unicode="l" horiz-adv-x="192" d="M71 0V667H121V0H71Z"  />
<glyph unicode="m" horiz-adv-x="669" d="M548 0V360Q548 404 531 427T475 450Q440 450 409 424T360 365V0H309V360Q309 404 292 427T236 450Q219 450 202 443T170 424T143 397T121 365V0H71V483H121V412Q129 426 142 440T173 467T210 487T252 495Q299 495 325 471T357 408Q375 442 411 468T491 495Q544 495 571 465T599 370V0H548Z"  />
<glyph unicode="n" horiz-adv-x="450" d="M328 0V355Q328 408 306 429T245 450Q226 450 208 443T173 424T144 397T121 365V0H71V483H121V412Q132 428 147 443T180 469T219 488T261 495Q321 495 350 464T379 365V0H328Z"  />
<glyph unicode="o" horiz-adv-x="469" d="M234 -12Q188 -12 154 8T96 63T60 144T48 242Q48 293 60 339T95 419T153 474T234 495Q280 495 315 475T374 420T409 339T421 242Q421 191 409 145T374 64T316 9T234 -12ZM234 33Q269 33 294 51T335 98T359 165T367 242Q367 281 360 318T336 385T294 432T234 450Q200 450 175 432T134 385T110 319T102 242Q102 203 110 165T134 98T175 51T234 33Z"  />
<glyph unicode="p" horiz-adv-x="467" d="M250 -12Q212 -12 178 10T121 74V-184H71V483H121V411Q142 448 176 471T250 495Q291 495 323 477T376 425T409 345T421 242Q421 186 410 140T377 59T323 7T250 -12ZM241 33Q274 33 297 50T336 95T359 162T367 242Q367 284 360 322T337 388T298 433T241 450Q222 450 204 443T170 423T141 395T121 361V123Q128 106 141 90T169 61T203 41T241 33Z"  />
<glyph unicode="q" horiz-adv-x="467" d="M226 33Q245 33 263 40T297 60T325 89T346 123V361Q338 379 326 395T298 423T264 442T226 450Q193 450 170 434T131 389T108 322T100 242Q100 200 107 162T130 96T169 50T226 33ZM217 -12Q176 -12 144 6T91 59T58 139T46 242Q46 298 57 344T90 424T144 476T217 495Q256 495 291 472T346 411V483H397V-184H346V74Q323 32 289 10T217 -12Z"  />
<glyph unicode="r" horiz-adv-x="278" d="M71 0V483H121V401Q146 442 179 467T260 493V438Q255 439 250 439T238 439Q220 439 203 432T170 412T141 384T121 352V0H71Z"  />
<glyph unicode="s" horiz-adv-x="377" d="M185 -12Q136 -12 99 4T32 56L61 92Q81 66 112 49T184 31Q230 31 258 55T286 120Q286 152 268 171T224 205T166 232T108 262T63 305T45 372Q45 398 55 420T84 459T129 485T189 495Q236 495 270 478T327 433L300 398Q261 452 189 452Q144 452 119 429T94 373Q94 344 112 326T156 294T214 268T272 237T317 191T335 121Q335 63 295 26T185 -12Z"  />
<glyph unicode="t" horiz-adv-x="249" d="M167 -12Q83 -12 83 89V438H17V483H83V615H133V483H216V438H133V95Q133 66 142 50T175 33Q189 33 200 39T219 55L239 18Q226 4 210 -4T167 -12Z"  />
<glyph unicode="u" horiz-adv-x="450" d="M328 0V69Q305 36 269 12T189 -12Q129 -12 100 18T71 117V483H121V127Q121 74 143 54T204 33Q223 33 241 40T276 58T306 84T328 116V483H379V0H328Z"  />
<glyph unicode="v" horiz-adv-x="392" d="M167 0L10 483H66L196 60L326 483H382L224 0H167Z"  />
<glyph unicode="w" horiz-adv-x="616" d="M419 0L308 414L197 0H147L17 483H71L174 72L283 483H332L442 72L545 483H599L469 0H419Z"  />
<glyph unicode="x" horiz-adv-x="393" d="M318 0L196 208L74 0H17L166 246L25 483H83L196 285L310 483H368L227 246L376 0H318Z"  />
<glyph unicode="y" horiz-adv-x="392" d="M49 -143Q56 -147 65 -149T81 -151Q102 -151 115 -140T140 -97L169 -10L10 483H66L196 62L326 483H382L187 -110Q171 -157 146 -176T83 -196Q72 -196 60 -194T40 -189L49 -143Z"  />
<glyph unicode="z" horiz-adv-x="379" d="M47 0V42L267 438H47V483H328V442L107 45H332V0H47Z"  />
<glyph unicode="{" horiz-adv-x="222" d="M158 -190Q139 -190 121 -182T89 -160T67 -126T58 -79V154Q58 182 45 203T6 225V264Q32 264 45 285T58 334V567Q58 592 66 613T89 648T121 670T158 678H205V636H158Q135 636 118 617T101 567V332Q101 300 91 278T56 244Q81 233 91 211T101 156V-79Q101 -109 118 -128T158 -148H205V-190H158Z"  />
<glyph unicode="|" horiz-adv-x="192" d="M75 -20V687H117V-20H75Z"  />
<glyph unicode="}" horiz-adv-x="222" d="M17 -148H63Q86 -148 103 -129T120 -79V156Q120 188 130 210T165 244Q140 255 130 277T120 332V567Q120 598 103 617T63 636H17V678H63Q82 678 100 670T132 648T154 613T163 567V334Q163 306 176 285T215 264V225Q189 225 176 204T163 154V-79Q163 -105 155 -125T132 -160T100 -182T63 -190H17V-148Z"  />
<glyph unicode="~" horiz-adv-x="442" d="M415 663Q412 622 406 580T386 505T351 450T296 429Q269 429 252 443T225 480T207 527T193 574T175 610T146 625Q111 625 95 574T70 427L28 433Q31 474 37 515T57 590T91 644T146 665Q173 665 190 651T217 614T235 567T249 519T267 483T296 468Q331 468 347 518T373 667L415 663Z"  />
<glyph unicode="&#xA0;" horiz-adv-x="218" />
<glyph unicode="&#xA3;" horiz-adv-x="433" d="M24 309H124Q112 327 99 345T75 384T57 430T50 488Q50 525 63 559T99 619T156 661T229 677Q285 677 326 649T386 570L342 545Q330 577 303 603T232 629Q208 629 186 620T147 592T119 548T109 487Q109 455 116 430T135 385T160 346T186 309H300V268H205Q214 244 214 213Q214 167 192 129T139 67Q162 77 185 77Q206 77 221 71T251 58T280 44T312 38Q340 38 362 50T394 77L420 32Q403 13 374 0T309 -13Q280 -13 263 -6T232 9T203 24T165 31Q144 31 119 21T68 -7L45 38Q102 67 132 112T162 205Q162 223 158 238T148 268H24V309Z"  />
<glyph unicode="&#xA4;" horiz-adv-x="478" d="M239 97Q201 97 172 109T119 144L46 71L13 103L91 180Q53 244 53 333Q53 376 62 415T92 486L13 565L46 598L121 522Q143 544 172 556T239 568Q276 568 305 556T357 522L432 598L465 564L386 486Q406 455 416 416T426 333Q426 244 386 179L465 101L432 68L357 143Q334 121 305 109T239 97ZM239 146Q274 146 299 162T340 204T365 264T373 333Q373 368 365 401T341 461T299 503T239 519Q204 519 179 503T138 461T113 402T105 333Q105 298 113 264T137 204T179 162T239 146Z"  />
<glyph unicode="&#xA5;" horiz-adv-x="483" d="M214 0V126H21V166H214V286H21V326H192L8 667H72L241 342L412 667H475L290 326H461V286H269V166H461V126H269V0H214Z"  />
<glyph unicode="&#xA6;" horiz-adv-x="192" d="M75 -20V296H117V-20H75ZM75 371V687H117V371H75Z"  />
<glyph unicode="&#xA7;" horiz-adv-x="377" d="M335 302Q335 264 315 232T251 182Q293 157 314 127T335 52Q335 -8 294 -44T185 -81Q129 -81 94 -62T32 -12L61 22Q78 1 108 -19T183 -40Q228 -40 257 -15T286 51Q286 83 268 103T224 138T166 165T108 195T63 238T45 305Q45 348 73 380T149 422Q96 449 71 480T45 556Q45 582 55 604T84 642T128 668T186 677Q236 677 270 660T327 615L299 583Q276 612 248 624T188 637Q146 637 120 614T94 555Q94 525 112 507T156 474T214 448T272 417T317 372T335 302ZM286 297Q286 321 277 338T255 367T225 388T194 403Q164 396 145 386T114 364T98 337T93 308Q93 288 101 273T126 245T163 222T211 200Q286 234 286 297Z"  />
<glyph unicode="&#xA8;" horiz-adv-x="260" d="M250 601Q250 586 240 575T214 564Q199 564 188 575T177 601Q177 616 188 626T214 637Q229 637 239 627T250 601ZM82 601Q82 586 72 575T46 564Q31 564 21 575T10 601Q10 616 20 626T46 637Q61 637 71 627T82 601Z"  />
<glyph unicode="&#xA9;" horiz-adv-x="778" d="M734 334Q734 263 707 200T633 90T524 16T389 -11Q318 -11 255 16T145 90T71 200T44 334Q44 406 71 468T145 578T255 652T389 679Q461 679 523 652T633 578T707 469T734 334ZM706 334Q706 399 681 457T613 558T512 626T389 651Q324 651 266 626T165 558T97 457T72 334Q72 269 97 211T165 110T266 42T389 17Q454 17 512 42T613 110T681 211T706 334ZM535 186Q508 154 473 137T391 120Q347 120 309 136T243 182T199 250T182 335Q182 381 198 420T243 488T309 533T391 549Q438 549 473 532T535 484L513 462Q493 488 460 503T391 519Q356 519 324 506T268 469T230 411T215 335Q215 294 229 261T268 202T324 164T391 150Q427 150 460 166T513 208L535 186Z"  />
<glyph unicode="&#xAB;" horiz-adv-x="350" d="M269 63L144 243L269 420H320L195 243L320 63H269ZM155 63L30 243L155 420H206L81 243L206 63H155Z"  />
<glyph unicode="&#xAC;" horiz-adv-x="437" d="M407 216H365V412H29V452H407V216Z"  />
<glyph unicode="&#xAD;" horiz-adv-x="266" d="M30 219V265H236V219H30Z"  />
<glyph unicode="&#xAE;" horiz-adv-x="494" d="M459 465Q459 421 443 383T398 315T330 270T247 253Q203 253 165 269T97 315T52 382T35 465Q35 509 51 548T97 615T164 660T247 677Q291 677 330 661T397 616T442 548T459 465ZM432 465Q432 504 418 537T378 596T319 635T247 650Q209 650 175 636T116 596T77 538T62 465Q62 427 76 394T116 335T175 295T247 280Q285 280 319 294T378 334T417 393T432 465ZM306 343L243 439H197V343H167V586H266Q297 586 319 566T341 512Q341 492 334 478T316 456T295 444T279 440L344 343H306ZM310 512Q310 532 296 545T266 558H197V468H266Q282 468 296 480T310 512Z"  />
<glyph unicode="&#xB0;" horiz-adv-x="281" d="M256 561Q256 537 247 516T222 480T185 455T140 446Q116 446 95 455T59 479T34 516T25 561Q25 585 34 606T58 643T95 668T140 677Q164 677 185 668T222 643T247 606T256 561ZM218 561Q218 593 195 616T140 639Q108 639 86 616T63 561Q63 529 85 507T140 484Q156 484 170 490T194 506T211 531T218 561Z"  />
<glyph unicode="&#xB1;" horiz-adv-x="436" d="M240 320V132H196V320H29V360H196V542H240V360H407V320H240ZM29 26V66H407V26H29Z"  />
<glyph unicode="&#xB2;" horiz-adv-x="318" d="M42 421V455Q92 507 128 545T187 614T222 669T234 718Q234 754 212 772T160 790Q130 790 107 776T69 738L41 764Q61 794 92 810T161 827Q184 827 205 820T242 800T268 766T278 719Q278 692 266 665T232 607T176 540T101 458H280V421H42Z"  />
<glyph unicode="&#xB3;" horiz-adv-x="318" d="M281 529Q281 478 250 446T158 414Q113 414 82 433T34 480L63 506Q78 481 101 466T156 451Q196 451 216 472T237 531Q237 575 211 592T150 609Q139 609 131 609T118 608V646Q123 645 131 645T149 645Q184 645 208 662T232 717Q232 754 210 772T155 790Q126 790 105 777T67 740L39 765Q58 793 88 810T158 827Q208 827 241 801T275 721Q275 681 251 658T200 628Q213 626 227 619T254 600T273 569T281 529Z"  />
<glyph unicode="&#xB5;" horiz-adv-x="461" d="M121 -184H71V483H121V127Q121 76 144 54T207 32Q226 32 244 39T277 57T306 84T328 116V483H379V93Q379 65 388 49T420 33Q427 33 437 35L441 -9Q430 -12 413 -12Q372 -12 353 10T330 72Q309 37 276 13T204 -12Q168 -12 150 -1T121 28V-184Z"  />
<glyph unicode="&#xB6;" horiz-adv-x="449" d="M330 -100V630H236V-100H199V323Q163 323 132 336T78 373T41 428T27 495Q27 531 40 562T77 616T132 653T199 667H367V-100H330Z"  />
<glyph unicode="&#xB7;" horiz-adv-x="218" d="M152 245Q152 227 140 215T109 202Q91 202 79 214T66 245Q66 262 78 274T109 287Q127 287 139 275T152 245Z"  />
<glyph unicode="&#xBB;" horiz-adv-x="350" d="M81 63H30L155 243L30 420H81L206 243L81 63ZM195 63H144L269 243L144 420H195L320 243L195 63Z"  />
<glyph unicode="&#xBD;" horiz-adv-x="678" d="M106 267V609L43 542L17 570L111 667H150V267H106ZM402 0V34Q452 86 488 124T547 193T582 248T594 297Q594 333 572 351T520 369Q490 369 467 355T429 317L401 343Q421 373 452 389T521 406Q544 406 565 399T602 379T628 345T638 298Q638 271 626 244T592 186T536 119T461 37H640V0H402ZM147 0H106L455 667H496L147 0Z"  />
<glyph unicode="&#x138;" horiz-adv-x="424" d="M343 0L197 230L121 136V0H71V483H121V202L345 483H406L231 265L404 0H343Z"  />
<glyph unicode="&#x192;" horiz-adv-x="386" d="M29 -161L122 261H61V308H133L188 555Q200 611 237 644T325 677Q346 677 364 671T397 648L368 608Q353 627 327 627Q295 627 273 606T242 547L190 308H312V261H179L85 -161H29Z"  />
<glyph unicode="&#x384;" horiz-adv-x="187" d="M98 570L115 765H179L127 570H98Z"  />
<glyph unicode="&#x385;" horiz-adv-x="450" d="M201 570L219 765H282L230 570H201ZM379 601Q379 586 368 575T342 564Q327 564 317 575T306 601Q306 616 316 626T342 637Q357 637 368 627T379 601ZM144 601Q144 586 134 575T108 564Q93 564 82 575T71 601Q71 616 82 626T108 637Q123 637 133 627T144 601Z"  />
<glyph unicode="&#x386;" horiz-adv-x="492" d="M100 570L117 765H181L129 570H100ZM420 0L372 165H121L73 0H12L213 667H279L480 0H420ZM246 602L133 215H359L246 602Z"  />
<glyph unicode="&#x388;" horiz-adv-x="462" d="M-7 570L10 765H74L22 570H-7ZM85 0V667H411V617H141V367H404V317H141V50H411V0H85Z"  />
<glyph unicode="&#x389;" horiz-adv-x="570" d="M-7 570L10 765H74L22 570H-7ZM439 0V318H141V0H85V667H141V368H439V667H494V0H439Z"  />
<glyph unicode="&#x38A;" horiz-adv-x="216" d="M-7 570L10 765H74L22 570H-7ZM85 0V667H141V0H85Z"  />
<glyph unicode="&#x38C;" horiz-adv-x="592" d="M25 570L42 765H106L54 570H25ZM298 -12Q239 -12 194 15T118 89T72 198T56 333Q56 405 71 467T118 577T194 651T298 678Q356 678 401 651T477 577T524 468T540 333Q540 261 524 199T478 89T402 15T298 -12ZM298 39Q342 39 376 62T433 125T469 218T481 333Q481 394 469 448T434 541T376 604T298 627Q253 627 219 604T162 542T126 448T114 333Q114 272 126 219T161 125T219 62T298 39Z"  />
<glyph unicode="&#x38E;" horiz-adv-x="532" d="M-12 570L5 765H69L17 570H-12ZM263 0V286L57 667H121L290 342L461 667H524L318 286V0H263Z"  />
<glyph unicode="&#x38F;" horiz-adv-x="585" d="M25 570L42 765H106L54 570H25ZM173 50Q149 68 127 94T89 157T62 238T52 340Q52 415 68 477T116 583T192 653T294 678Q351 678 396 654T472 584T519 477T536 340Q536 284 527 239T501 157T462 95T416 50H523V0H351V50Q373 59 395 80T436 136T466 220T478 333Q478 399 466 453T431 545T373 605T294 626Q250 626 216 605T159 546T123 453T111 333Q111 269 123 220T153 137T194 81T238 50V0H66V50H173Z"  />
<glyph unicode="&#x390;" horiz-adv-x="203" d="M80 570L98 765H161L109 570H80ZM258 601Q258 586 247 575T221 564Q206 564 196 575T185 601Q185 616 195 626T221 637Q236 637 247 627T258 601ZM23 601Q23 586 13 575T-13 564Q-28 564 -39 575T-50 601Q-50 616 -39 626T-13 637Q2 637 12 627T23 601ZM155 -12Q111 -12 91 13T71 89V483H121V93Q121 65 130 49T162 33Q169 33 179 35L183 -9Q172 -12 155 -12Z"  />
<glyph unicode="&#x391;" horiz-adv-x="492" d="M420 0L372 165H121L73 0H12L213 667H279L480 0H420ZM246 602L133 215H359L246 602Z"  />
<glyph unicode="&#x392;" horiz-adv-x="498" d="M75 0V667H272Q347 667 390 622T433 497Q433 434 404 395T333 344Q357 340 377 325T412 288T435 237T444 180Q444 96 401 48T277 0H75ZM265 367Q294 367 314 376T348 403T368 442T374 491Q374 517 368 540T349 580T315 607T265 617H131V367H265ZM269 50Q328 50 356 86T385 184Q385 210 378 234T357 276T321 306T269 317H131V50H269Z"  />
<glyph unicode="&#x393;" horiz-adv-x="441" d="M75 0V667H401V617H131V0H75Z"  />
<glyph unicode="&#x394;" horiz-adv-x="510" d="M12 0L222 667H288L498 0H12ZM255 602L86 50H424L255 602Z"  />
<glyph unicode="&#x395;" horiz-adv-x="452" d="M75 0V667H401V617H131V367H394V317H131V50H401V0H75Z"  />
<glyph unicode="&#x396;" horiz-adv-x="453" d="M42 0V49L338 617H42V667H403V619L106 50H410V0H42Z"  />
<glyph unicode="&#x397;" horiz-adv-x="559" d="M429 0V318H131V0H75V667H131V368H429V667H484V0H429Z"  />
<glyph unicode="&#x398;" horiz-adv-x="590" d="M157 317V367H433V317H157ZM295 -12Q236 -12 191 15T115 89T69 198T53 333Q53 405 68 467T115 577T191 651T295 678Q353 678 398 651T474 577T521 468T537 333Q537 261 521 199T475 89T399 15T295 -12ZM295 39Q339 39 373 62T430 125T466 218T478 333Q478 394 466 448T431 541T373 604T295 627Q250 627 216 604T159 542T123 448T111 333Q111 272 123 219T158 125T216 62T295 39Z"  />
<glyph unicode="&#x399;" horiz-adv-x="206" d="M75 0V667H131V0H75Z"  />
<glyph unicode="&#x39A;" horiz-adv-x="490" d="M403 0L190 309L131 225V0H75V667H131V303L384 667H451L224 349L471 0H403Z"  />
<glyph unicode="&#x39B;" horiz-adv-x="492" d="M420 0L246 602L73 0H12L213 667H279L480 0H420Z"  />
<glyph unicode="&#x39C;" horiz-adv-x="661" d="M531 0V571L342 0H319L131 571V0H75V667H156L331 141L506 667H586V0H531Z"  />
<glyph unicode="&#x39D;" horiz-adv-x="557" d="M428 0L131 546V0H75V667H131L426 129V667H482V0H428Z"  />
<glyph unicode="&#x39E;" horiz-adv-x="486" d="M52 617V667H434V617H52ZM52 0V50H433V0H52ZM59 317V367H427V317H59Z"  />
<glyph unicode="&#x39F;" horiz-adv-x="590" d="M295 -12Q236 -12 191 15T115 89T69 198T53 333Q53 405 68 467T115 577T191 651T295 678Q353 678 398 651T474 577T521 468T537 333Q537 261 521 199T475 89T399 15T295 -12ZM295 39Q339 39 373 62T430 125T466 218T478 333Q478 394 466 448T431 541T373 604T295 627Q250 627 216 604T159 542T123 448T111 333Q111 272 123 219T158 125T216 62T295 39Z"  />
<glyph unicode="&#x3A0;" horiz-adv-x="559" d="M429 0V617H131V0H75V667H484V0H429Z"  />
<glyph unicode="&#x3A1;" horiz-adv-x="468" d="M75 0V667H259Q302 667 335 652T390 609T423 547T434 472Q434 433 423 398T390 336T335 294T259 278H131V0H75ZM255 328Q312 328 343 368T375 472Q375 536 344 576T255 617H131V328H255Z"  />
<glyph unicode="&#x3A3;" horiz-adv-x="441" d="M294 344L113 50H394V0H52V51L231 344L52 617V667H394V617H115L294 344Z"  />
<glyph unicode="&#x3A4;" horiz-adv-x="435" d="M189 0V617H27V667H408V617H245V0H189Z"  />
<glyph unicode="&#x3A5;" horiz-adv-x="483" d="M214 0V286L8 667H72L241 342L412 667H475L269 286V0H214Z"  />
<glyph unicode="&#x3A6;" horiz-adv-x="670" d="M307 0V65Q243 69 196 91T117 150T69 233T53 333Q53 385 69 432T116 515T195 573T307 601V667H363V601Q426 596 473 574T553 515T601 432T617 333Q617 280 601 233T553 150T474 92T363 65V0H307ZM111 333Q111 290 123 253T159 186T221 139T307 116V550Q258 546 221 528T160 481T123 414T111 333ZM558 333Q558 376 546 413T509 480T448 527T363 550V116Q411 120 447 138T508 186T545 252T558 333Z"  />
<glyph unicode="&#x3A7;" horiz-adv-x="491" d="M414 0L246 293L78 0H12L213 340L23 667H90L246 389L402 667H468L279 341L479 0H414Z"  />
<glyph unicode="&#x3A8;" horiz-adv-x="661" d="M303 0V125Q194 132 135 192T75 365V667H131V366Q131 275 176 228T303 175V667H358V175Q439 182 484 228T529 366V667H585V365Q585 253 526 193T358 125V0H303Z"  />
<glyph unicode="&#x3A9;" horiz-adv-x="581" d="M169 50Q145 68 123 94T85 157T58 238T48 340Q48 415 64 477T112 583T188 653T290 678Q347 678 392 654T468 584T515 477T532 340Q532 284 523 239T497 157T458 95T412 50H519V0H347V50Q369 59 391 80T432 136T462 220T474 333Q474 399 462 453T427 545T369 605T290 626Q246 626 212 605T155 546T119 453T107 333Q107 269 119 220T149 137T190 81T234 50V0H62V50H169Z"  />
<glyph unicode="&#x3AA;" horiz-adv-x="206" d="M75 0V667H131V0H75ZM225 785Q225 770 215 759T189 748Q174 748 163 759T152 785Q152 800 163 810T189 821Q204 821 214 811T225 785ZM57 785Q57 770 47 759T21 748Q6 748 -4 759T-15 785Q-15 800 -5 810T21 821Q36 821 46 811T57 785Z"  />
<glyph unicode="&#x3AB;" horiz-adv-x="483" d="M214 0V286L8 667H72L241 342L412 667H475L269 286V0H214ZM361 785Q361 770 351 759T325 748Q310 748 299 759T288 785Q288 800 299 810T325 821Q340 821 350 811T361 785ZM193 785Q193 770 183 759T157 748Q142 748 132 759T121 785Q121 800 131 810T157 821Q172 821 182 811T193 785Z"  />
<glyph unicode="&#x3AC;" horiz-adv-x="480" d="M218 570L235 765H299L247 570H218ZM460 -9Q449 -12 432 -12Q391 -12 372 10T349 74Q329 37 295 13T219 -12Q178 -12 146 6T93 58T60 138T48 241Q48 296 59 343T92 423T146 476T219 495Q257 495 291 473T347 409V483H398V93Q398 65 407 49T439 33Q446 33 456 35L460 -9ZM228 33Q247 33 265 40T299 60T327 88T348 122V359Q340 377 328 393T300 421T266 441T228 449Q195 449 172 433T133 388T110 321T102 241Q102 199 109 161T132 95T171 50T228 33Z"  />
<glyph unicode="&#x3AD;" horiz-adv-x="429" d="M193 570L210 765H274L222 570H193ZM225 -12Q182 -12 149 -1T94 29T60 73T48 128Q48 155 59 176T86 211T123 234T164 246Q144 250 125 260T90 286T65 322T55 366Q55 396 69 420T107 460T163 486T234 495Q290 495 328 474T393 417L361 388Q316 452 233 452Q179 452 144 428T108 362Q108 315 144 291T232 267H321V224H231Q207 224 184 220T142 206T112 177T101 131Q101 86 135 59T226 31Q274 31 309 48T369 98L400 68Q372 32 329 10T225 -12Z"  />
<glyph unicode="&#x3AE;" horiz-adv-x="450" d="M203 570L220 765H284L232 570H203ZM328 -184V355Q328 408 306 429T245 450Q226 450 208 443T173 424T144 397T121 365V0H71V483H121V412Q132 428 147 443T180 469T219 488T261 495Q321 495 350 464T379 365V-184H328Z"  />
<glyph unicode="&#x3AF;" horiz-adv-x="203" d="M83 570L100 765H164L112 570H83ZM155 -12Q111 -12 91 13T71 89V483H121V93Q121 65 130 49T162 33Q169 33 179 35L183 -9Q172 -12 155 -12Z"  />
<glyph unicode="&#x3B0;" horiz-adv-x="459" d="M205 570L223 765H286L234 570H205ZM383 601Q383 586 372 575T346 564Q331 564 321 575T310 601Q310 616 320 626T346 637Q361 637 372 627T383 601ZM148 601Q148 586 138 575T112 564Q97 564 86 575T75 601Q75 616 86 626T112 637Q127 637 137 627T148 601ZM225 -12Q145 -12 108 40T71 179V483H121V180Q121 109 147 71T225 33Q260 33 285 51T326 98T349 166T357 246Q357 309 341 365T290 472L335 495Q372 441 392 378T412 246Q412 193 400 146T365 64T307 9T225 -12Z"  />
<glyph unicode="&#x3B1;" horiz-adv-x="480" d="M460 -9Q449 -12 432 -12Q391 -12 372 10T349 74Q329 37 295 13T219 -12Q178 -12 146 6T93 58T60 138T48 241Q48 296 59 343T92 423T146 476T219 495Q257 495 291 473T347 409V483H398V93Q398 65 407 49T439 33Q446 33 456 35L460 -9ZM228 33Q247 33 265 40T299 60T327 88T348 122V359Q340 377 328 393T300 421T266 441T228 449Q195 449 172 433T133 388T110 321T102 241Q102 199 109 161T132 95T171 50T228 33Z"  />
<glyph unicode="&#x3B2;" horiz-adv-x="469" d="M121 122Q137 87 170 60T245 33Q275 33 298 44T336 74T359 120T367 176Q367 214 356 241T327 286T285 312T235 321H209V366H234Q284 366 319 398T354 498Q354 563 323 597T247 631Q222 631 199 622T159 593T132 539T121 459V122ZM121 -184H71V459Q71 519 85 560T125 628T181 665T248 677Q282 677 311 666T361 633T395 578T408 501Q408 469 399 443T375 397T340 364T298 345Q318 342 340 329T380 295T409 242T421 171Q421 130 409 97T375 39T323 2T255 -12Q212 -12 177 11T121 72V-184Z"  />
<glyph unicode="&#x3B3;" horiz-adv-x="392" d="M170 -184V-31Q170 44 158 116T123 254T69 378T0 483H60Q88 443 113 395T158 295T191 186T208 75Q231 115 250 164T283 266T305 374T313 483H364Q364 424 354 362T325 238T280 117T221 4V-184H170Z"  />
<glyph unicode="&#x3B4;" horiz-adv-x="469" d="M236 -12Q189 -12 154 6T96 55T60 125T48 206Q48 251 58 286T85 350T127 399T179 436Q143 456 118 482T93 556Q93 582 103 604T132 643T177 669T237 679Q284 679 318 662T375 617L348 582Q309 636 237 636Q192 636 167 613T142 557Q142 526 162 507T214 471T281 436T349 389T400 317T421 206Q421 164 410 125T375 56T317 7T236 -12ZM372 206Q372 253 360 285T327 341T282 380T229 410Q170 384 136 336T102 206Q102 176 110 146T134 90T175 49T235 33Q270 33 296 49T339 90T364 145T372 206Z"  />
<glyph unicode="&#x3B5;" horiz-adv-x="429" d="M225 -12Q182 -12 149 -1T94 29T60 73T48 128Q48 155 59 176T86 211T123 234T164 246Q144 250 125 260T90 286T65 322T55 366Q55 396 69 420T107 460T163 486T234 495Q290 495 328 474T393 417L361 388Q316 452 233 452Q179 452 144 428T108 362Q108 315 144 291T232 267H321V224H231Q207 224 184 220T142 206T112 177T101 131Q101 86 135 59T226 31Q274 31 309 48T369 98L400 68Q372 32 329 10T225 -12Z"  />
<glyph unicode="&#x3B6;" horiz-adv-x="398" d="M308 -50Q308 -28 296 -20T257 -12Q208 -12 170 4T104 48T63 114T48 196Q48 321 112 425T299 622H60V667H358V626Q230 525 166 422T102 200Q102 167 112 137T143 84T193 47T263 33Q313 33 336 16T360 -43Q360 -66 350 -95T319 -157H264Q281 -131 294 -102T308 -50Z"  />
<glyph unicode="&#x3B7;" horiz-adv-x="450" d="M328 -184V355Q328 408 306 429T245 450Q226 450 208 443T173 424T144 397T121 365V0H71V483H121V412Q132 428 147 443T180 469T219 488T261 495Q321 495 350 464T379 365V-184H328Z"  />
<glyph unicode="&#x3B8;" horiz-adv-x="469" d="M234 -12Q184 -12 149 14T92 86T59 195T48 334Q48 409 58 472T91 582T149 653T234 679Q284 679 319 654T377 582T410 473T421 334Q421 259 411 196T378 86T320 14T234 -12ZM234 33Q270 33 295 54T335 112T358 200T367 313H102Q103 252 110 201T132 112T173 54T234 33ZM234 634Q198 634 174 613T134 556T111 469T102 358H367Q366 418 359 468T336 555T295 613T234 634Z"  />
<glyph unicode="&#x3B9;" horiz-adv-x="203" d="M155 -12Q111 -12 91 13T71 89V483H121V93Q121 65 130 49T162 33Q169 33 179 35L183 -9Q172 -12 155 -12Z"  />
<glyph unicode="&#x3BA;" horiz-adv-x="424" d="M343 0L197 230L121 136V0H71V483H121V202L345 483H406L231 265L404 0H343Z"  />
<glyph unicode="&#x3BB;" horiz-adv-x="392" d="M40 672Q48 675 60 677T83 679Q120 679 145 660T187 593L382 0H326L196 421L66 0H10L169 493L140 579Q129 611 116 622T81 634Q75 634 66 632T49 626L40 672Z"  />
<glyph unicode="&#x3BC;" horiz-adv-x="461" d="M121 -184H71V483H121V127Q121 76 144 54T207 32Q226 32 244 39T277 57T306 84T328 116V483H379V93Q379 65 388 49T420 33Q427 33 437 35L441 -9Q430 -12 413 -12Q372 -12 353 10T330 72Q309 37 276 13T204 -12Q168 -12 150 -1T121 28V-184Z"  />
<glyph unicode="&#x3BD;" horiz-adv-x="392" d="M167 0L10 483H66L198 55Q225 102 246 155T282 263T305 374T313 483H364Q364 423 354 360T325 235T279 113T219 0H167Z"  />
<glyph unicode="&#x3BE;" horiz-adv-x="398" d="M257 -12Q206 -12 167 2T102 42T62 101T48 175Q48 211 59 239T87 289T125 322T166 340Q145 345 126 357T91 388T66 430T56 483Q56 527 81 564T147 622H61V667H348V622H202Q160 605 135 569T110 492Q110 461 120 438T148 398T189 374T238 366H341V322H238Q210 322 186 314T143 289T113 244T102 180Q102 152 111 126T141 79T191 46T263 33Q313 33 336 16T360 -43Q360 -66 350 -95T319 -157H264Q281 -131 294 -102T308 -50Q308 -28 296 -20T257 -12Z"  />
<glyph unicode="&#x3BF;" horiz-adv-x="469" d="M234 -12Q188 -12 154 8T96 63T60 144T48 242Q48 293 60 339T95 419T153 474T234 495Q280 495 315 475T374 420T409 339T421 242Q421 191 409 145T374 64T316 9T234 -12ZM234 33Q269 33 294 51T335 98T359 165T367 242Q367 281 360 318T336 385T294 432T234 450Q200 450 175 432T134 385T110 319T102 242Q102 203 110 165T134 98T175 51T234 33Z"  />
<glyph unicode="&#x3C0;" horiz-adv-x="474" d="M341 0V438H133V0H83V438H17V483H457V438H392V0H341Z"  />
<glyph unicode="&#x3C1;" horiz-adv-x="467" d="M250 -12Q212 -12 178 10T121 74V-184H71V242Q71 293 82 339T115 419T169 474T245 495Q288 495 321 476T376 422T409 341T421 242Q421 186 410 140T377 59T323 7T250 -12ZM241 33Q274 33 297 50T336 95T359 162T367 242Q367 282 360 320T338 386T300 432T244 450Q212 450 189 432T151 385T129 319T121 242V123Q128 106 141 90T169 61T203 41T241 33Z"  />
<glyph unicode="&#x3C2;" horiz-adv-x="388" d="M254 -12Q206 -12 168 6T103 58T62 139T48 242Q48 295 61 341T98 421T158 475T239 495Q287 495 317 478T370 431L340 397Q319 426 295 438T242 450Q207 450 181 433T137 388T111 322T102 242Q102 196 112 158T143 92T192 49T259 33Q311 33 334 16T357 -43Q357 -89 317 -157H266Q283 -131 296 -102T310 -50Q310 -28 297 -20T254 -12Z"  />
<glyph unicode="&#x3C3;" horiz-adv-x="469" d="M419 229Q419 182 408 139T373 62T315 8T234 -12Q189 -12 154 8T96 63T60 144T48 242Q48 290 60 333T97 410T160 463T250 483H448V438H339Q377 399 398 349T419 229ZM367 233Q367 304 344 356T279 438H250Q210 438 182 421T136 375T110 312T102 242Q102 203 110 165T134 98T175 51T234 33Q269 33 294 50T335 96T359 161T367 233Z"  />
<glyph unicode="&#x3C4;" horiz-adv-x="358" d="M238 -12Q153 -12 153 89V438H22V483H336V438H204V95Q204 66 213 50T245 33Q259 33 270 39T289 55L310 18Q297 4 281 -4T238 -12Z"  />
<glyph unicode="&#x3C5;" horiz-adv-x="459" d="M225 -12Q145 -12 108 40T71 179V483H121V180Q121 109 147 71T225 33Q260 33 285 51T326 98T349 166T357 246Q357 309 341 365T290 472L335 495Q372 441 392 378T412 246Q412 193 400 146T365 64T307 9T225 -12Z"  />
<glyph unicode="&#x3C6;" horiz-adv-x="610" d="M562 242Q562 192 549 148T507 69T435 14T330 -11V-184H279V-11Q218 -7 175 14T103 70T62 150T48 248Q48 340 89 401T197 495L220 455Q102 394 102 248Q102 208 111 172T141 106T195 57T279 34V495H305Q373 495 421 475T501 421T547 340T562 242ZM508 242Q508 281 499 317T468 381T412 427T330 449V34Q380 38 414 57T469 104T499 168T508 242Z"  />
<glyph unicode="&#x3C7;" horiz-adv-x="393" d="M321 -184L196 106L71 -184H17L166 156L25 483H80L196 207L313 483H368L227 156L376 -184H321Z"  />
<glyph unicode="&#x3C8;" horiz-adv-x="610" d="M279 -184V-11Q71 2 71 214V483H121V214Q121 124 161 82T279 34V667H330V34Q406 39 447 81T488 214V483H539V214Q539 1 330 -11V-184H279Z"  />
<glyph unicode="&#x3C9;" horiz-adv-x="669" d="M621 242Q621 190 612 144T583 64T535 9T469 -12Q440 -12 418 -1T380 28T352 70T335 120Q329 94 318 70T291 28T252 -1T201 -12Q163 -12 135 8T87 63T58 144T48 242Q48 279 54 317T73 389T105 450T151 495L185 461Q161 444 145 419T120 364T106 303T102 242Q102 203 108 165T126 98T158 51T205 33Q233 33 252 51T284 98T303 165T309 242V366H360V242Q360 203 366 165T384 98T416 51T464 33Q491 33 510 51T542 98T561 165T567 242Q567 271 563 302T550 363T524 418T484 461L518 495Q545 478 564 451T596 389T615 317T621 242Z"  />
<glyph unicode="&#x3CA;" horiz-adv-x="203" d="M224 601Q224 586 214 575T188 564Q173 564 162 575T151 601Q151 616 162 626T188 637Q203 637 213 627T224 601ZM56 601Q56 586 46 575T20 564Q5 564 -5 575T-16 601Q-16 616 -6 626T20 637Q35 637 45 627T56 601ZM155 -12Q111 -12 91 13T71 89V483H121V93Q121 65 130 49T162 33Q169 33 179 35L183 -9Q172 -12 155 -12Z"  />
<glyph unicode="&#x3CB;" horiz-adv-x="459" d="M349 601Q349 586 339 575T313 564Q298 564 287 575T276 601Q276 616 287 626T313 637Q328 637 338 627T349 601ZM181 601Q181 586 171 575T145 564Q130 564 120 575T109 601Q109 616 119 626T145 637Q160 637 170 627T181 601ZM225 -12Q145 -12 108 40T71 179V483H121V180Q121 109 147 71T225 33Q260 33 285 51T326 98T349 166T357 246Q357 309 341 365T290 472L335 495Q372 441 392 378T412 246Q412 193 400 146T365 64T307 9T225 -12Z"  />
<glyph unicode="&#x3CC;" horiz-adv-x="469" d="M213 570L230 765H294L242 570H213ZM234 -12Q188 -12 154 8T96 63T60 144T48 242Q48 293 60 339T95 419T153 474T234 495Q280 495 315 475T374 420T409 339T421 242Q421 191 409 145T374 64T316 9T234 -12ZM234 33Q269 33 294 51T335 98T359 165T367 242Q367 281 360 318T336 385T294 432T234 450Q200 450 175 432T134 385T110 319T102 242Q102 203 110 165T134 98T175 51T234 33Z"  />
<glyph unicode="&#x3CD;" horiz-adv-x="459" d="M209 570L226 765H290L238 570H209ZM225 -12Q145 -12 108 40T71 179V483H121V180Q121 109 147 71T225 33Q260 33 285 51T326 98T349 166T357 246Q357 309 341 365T290 472L335 495Q372 441 392 378T412 246Q412 193 400 146T365 64T307 9T225 -12Z"  />
<glyph unicode="&#x3CE;" horiz-adv-x="669" d="M313 570L330 765H394L342 570H313ZM621 242Q621 190 612 144T583 64T535 9T469 -12Q440 -12 418 -1T380 28T352 70T335 120Q329 94 318 70T291 28T252 -1T201 -12Q163 -12 135 8T87 63T58 144T48 242Q48 279 54 317T73 389T105 450T151 495L185 461Q161 444 145 419T120 364T106 303T102 242Q102 203 108 165T126 98T158 51T205 33Q233 33 252 51T284 98T303 165T309 242V366H360V242Q360 203 366 165T384 98T416 51T464 33Q491 33 510 51T542 98T561 165T567 242Q567 271 563 302T550 363T524 418T484 461L518 495Q545 478 564 451T596 389T615 317T621 242Z"  />
<glyph unicode="&#x2013;" horiz-adv-x="527" d="M30 219V265H497V219H30Z"  />
<glyph unicode="&#x2014;" horiz-adv-x="737" d="M30 219V265H707V219H30Z"  />
<glyph unicode="&#x2015;" horiz-adv-x="527" d="M30 219V265H497V219H30Z"  />
<glyph unicode="&#x2018;" horiz-adv-x="218" d="M57 543Q57 585 78 621T128 677L157 653Q133 636 117 610T99 561Q100 561 103 561T109 562Q126 562 137 550T149 521Q149 504 137 492T107 479Q87 479 72 495T57 543Z"  />
<glyph unicode="&#x2019;" horiz-adv-x="218" d="M157 613Q157 572 136 536T86 479L57 502Q81 519 97 545T116 595Q115 595 112 594T106 593Q88 593 77 605T66 635Q66 652 78 664T108 677Q128 677 142 661T157 613Z"  />
<glyph unicode="&#x201A;" horiz-adv-x="218" d="M157 13Q157 -29 136 -65T86 -122L57 -98Q81 -81 97 -55T116 -6Q115 -6 112 -6T106 -7Q88 -7 77 5T66 34Q66 51 78 63T108 76Q128 76 142 60T157 13Z"  />
<glyph unicode="&#x201C;" horiz-adv-x="358" d="M61 543Q61 585 82 621T132 677L161 653Q137 636 121 610T103 561H106Q108 561 109 561T113 562Q130 562 141 550T152 521Q152 504 141 492T110 479Q90 479 76 495T61 543ZM201 543Q201 585 222 621T272 677L301 653Q277 636 261 610T243 561Q244 561 247 561T253 562Q270 562 281 550T293 521Q293 504 281 492T251 479Q231 479 216 495T201 543Z"  />
<glyph unicode="&#x201D;" horiz-adv-x="358" d="M297 613Q297 571 277 535T227 479L197 502Q221 519 237 545T256 595Q255 595 252 594T246 593Q229 593 218 605T206 635Q206 652 218 664T248 677Q268 677 282 661T297 613ZM157 613Q157 572 136 536T86 479L57 502Q81 519 97 545T116 595Q115 595 112 594T106 593Q88 593 77 605T66 635Q66 652 78 664T108 677Q128 677 142 661T157 613Z"  />
<glyph unicode="&#x201E;" horiz-adv-x="358" d="M157 13Q157 -29 136 -65T86 -122L57 -98Q81 -81 97 -55T116 -6Q115 -6 112 -6T106 -7Q88 -7 77 5T66 34Q66 51 78 63T108 76Q128 76 142 60T157 13ZM297 13Q297 -29 277 -65T227 -122L197 -98Q221 -81 237 -55T256 -6Q255 -6 252 -6T246 -7Q229 -7 218 5T206 34Q206 51 218 63T248 76Q268 76 282 60T297 13Z"  />
<glyph unicode="&#x2020;" horiz-adv-x="257" d="M144 539L148 327H109L113 539L24 535V570L113 567L109 677H148L144 567L233 570V535L144 539Z"  />
<glyph unicode="&#x2021;" horiz-adv-x="257" d="M233 535L144 539V318L233 322V287L144 290L148 180H109L113 290L24 287V322L113 318V539L24 535V570L113 567L109 677H148L144 567L233 570V535Z"  />
<glyph unicode="&#x2022;" horiz-adv-x="358" d="M283 242Q283 221 275 203T253 171T220 149T180 141Q159 141 140 149T108 170T86 202T78 242Q78 263 86 282T107 315T140 337T180 345Q201 345 220 337T253 315T275 282T283 242Z"  />
<glyph unicode="&#x2026;" horiz-adv-x="654" d="M152 34Q152 16 140 4T109 -9Q91 -9 79 3T66 34Q66 51 78 63T109 76Q127 76 139 64T152 34ZM370 34Q370 16 358 4T327 -9Q309 -9 297 3T284 34Q284 51 296 63T327 76Q345 76 357 64T370 34ZM589 34Q589 16 576 4T545 -9Q528 -9 515 3T502 34Q502 51 515 63T545 76Q563 76 576 64T589 34Z"  />
<glyph unicode="&#x2030;" horiz-adv-x="948" d="M307 512Q307 477 297 448T269 396T226 362T170 350Q139 350 114 362T71 396T43 447T33 512Q33 547 43 577T71 630T114 664T170 677Q201 677 226 665T269 630T297 578T307 512ZM168 0H128L476 667H518L168 0ZM608 151Q608 116 598 86T570 35T527 1T471 -12Q441 -12 416 0T373 34T345 86T335 151Q335 186 345 216T373 268T416 302T471 315Q502 315 527 303T570 268T598 216T608 151ZM262 512Q262 539 256 562T237 602T208 630T170 640Q149 640 132 630T103 603T85 562T78 512Q78 486 84 464T103 424T132 397T170 387Q191 387 208 397T237 424T255 463T262 512ZM564 151Q564 177 558 200T539 240T510 268T471 278Q450 278 433 268T404 241T386 200T379 151Q379 125 385 102T404 62T433 35T471 25Q492 25 509 35T539 62T557 102T564 151ZM915 151Q915 116 905 86T877 35T834 1T778 -12Q747 -12 722 0T679 34T651 86T641 151Q641 186 651 216T679 268T722 302T778 315Q809 315 834 303T877 268T905 216T915 151ZM870 151Q870 177 864 200T845 240T816 268T778 278Q757 278 740 268T711 241T693 200T686 151Q686 125 692 102T711 62T740 35T778 25Q799 25 816 35T845 62T863 102T870 151Z"  />
<glyph unicode="&#x2039;" horiz-adv-x="236" d="M155 63L30 243L155 420H206L81 243L206 63H155Z"  />
<glyph unicode="&#x203A;" horiz-adv-x="236" d="M81 63H30L155 243L30 420H81L206 243L81 63Z"  />
<glyph unicode="&#x2044;" horiz-adv-x="119" d="M-95 0H-136L213 667H254L-95 0Z"  />
<glyph unicode="&#x20AC;" horiz-adv-x="537" d="M318 -12Q270 -12 230 6T158 58T106 138T76 242H26V283H71Q70 296 70 308T69 333Q69 347 69 359T71 385H26V426H76Q86 482 107 528T159 608T230 659T318 678Q352 678 379 669T429 644T470 607T502 561L455 537Q432 579 398 603T318 627Q283 627 253 613T200 572T160 508T135 426H362V385H129Q128 372 128 360T127 333Q127 320 127 308T129 283H362V242H134Q142 197 158 160T199 95T253 54T318 39Q366 39 400 67T456 139L504 115Q490 88 472 65T432 25T381 -2T318 -12Z"  />
<glyph unicode="&#x2122;" horiz-adv-x="414" d="M351 447V629L286 447H278L213 629V447H185V667H228L282 509L336 667H379V447H351ZM97 641V447H69V641H17V667H149V641H97Z"  />
<glyph unicode="&#x2126;" horiz-adv-x="581" d="M169 50Q145 68 123 94T85 157T58 238T48 340Q48 415 64 477T112 583T188 653T290 678Q347 678 392 654T468 584T515 477T532 340Q532 284 523 239T497 157T458 95T412 50H519V0H347V50Q369 59 391 80T432 136T462 220T474 333Q474 399 462 453T427 545T369 605T290 626Q246 626 212 605T155 546T119 453T107 333Q107 269 119 220T149 137T190 81T234 50V0H62V50H169Z"  />
<glyph unicode="&#xF656;" horiz-adv-x="208" d="M106 0V342L43 275L17 303L111 400H150V0H106Z"  />
<glyph unicode="&#xF657;" horiz-adv-x="318" d="M42 0V34Q92 86 128 124T187 193T222 248T234 297Q234 333 212 351T160 369Q130 369 107 355T69 317L41 343Q61 373 92 389T161 406Q184 406 205 399T242 379T268 345T278 298Q278 271 266 244T232 186T176 119T101 37H280V0H42Z"  />
<glyph unicode="&#xF658;" horiz-adv-x="318" d="M281 108Q281 57 250 25T158 -7Q113 -7 82 12T34 59L63 85Q78 60 101 45T156 30Q196 30 216 51T237 110Q237 154 211 171T150 188Q139 188 131 188T118 187V225Q123 224 131 224T149 224Q184 224 208 241T232 296Q232 333 210 351T155 369Q126 369 105 356T67 319L39 344Q58 372 88 389T158 406Q208 406 241 380T275 300Q275 260 251 237T200 207Q213 205 227 198T254 179T273 148T281 108Z"  />


</font>
</defs>
</svg>
